<svg width="2687" height="2687" viewBox="0 0 2687 2687" fill="none" xmlns="http://www.w3.org/2000/svg">
<rect x="5" y="5" width="2677" height="2677" rx="293" stroke="url(#paint0_linear_4277_112)" stroke-width="10"/>
<path d="M2187.62 1410.48L1844.53 1497.61C1817.3 1503.05 1800.96 1513.95 1800.96 1535.73C1800.96 1552.07 1806.4 1568.4 1844.53 1606.52L2138.61 1922.37C2291.09 2091.18 2242.08 2156.53 2095.04 2287.23L2035.13 2341.68C1882.65 2477.83 1790.07 2461.49 1675.7 2270.89L1403.41 1818.9C1370.73 1764.45 1365.28 1759 1343.5 1759C1321.72 1759 1316.27 1764.45 1283.59 1818.9L1011.3 2276.34C896.934 2466.93 815.245 2472.38 651.868 2341.68L591.962 2292.67C434.031 2161.98 395.909 2085.74 548.395 1922.37L837.029 1611.97C880.597 1568.4 880.596 1552.07 880.596 1535.73C880.596 1513.95 864.259 1503.05 837.029 1497.61L499.382 1410.48C281.545 1356.02 254.315 1274.34 330.558 1089.18L363.234 1012.95C439.477 827.793 499.382 757 700.881 860.467L1000.41 1012.95C1043.97 1034.73 1065.76 1040.17 1082.1 1029.28C1098.43 1018.39 1103.88 1002.05 1098.43 969.381L1049.42 528.283C1022.19 299.565 1103.88 256 1305.38 256H1387.07C1594.01 256 1664.81 299.565 1637.58 528.283L1588.57 969.381C1583.12 1007.5 1588.57 1018.39 1604.9 1029.28C1621.24 1040.17 1648.47 1034.73 1686.59 1012.95L1986.12 860.467C2187.62 757 2247.52 827.793 2323.77 1012.95L2356.44 1089.18C2432.68 1274.34 2405.46 1356.02 2187.62 1410.48Z" fill="white"/>
<defs>
<linearGradient id="paint0_linear_4277_112" x1="1343.5" y1="10" x2="1343.5" y2="2677" gradientUnits="userSpaceOnUse">
<stop stop-color="white"/>
<stop offset="1" stop-color="#ACACAC"/>
</linearGradient>
</defs>
</svg>
