<?xml version="1.0" encoding="utf-8"?>
<!-- Generator: Adobe Illustrator 27.9.4, SVG Export Plug-In . SVG Version: 9.03 Build 54784)  -->
<svg version="1.1" id="Layer_2_00000145764496325602330190000011552872770934868405_"
	 xmlns="http://www.w3.org/2000/svg" xmlns:xlink="http://www.w3.org/1999/xlink" x="0px" y="0px" viewBox="0 0 443.1 361.4"
	 style="enable-background:new 0 0 443.1 361.4;" xml:space="preserve">
<style type="text/css">
	.st0{fill:#00406F;}
	.st1{fill:#FFFFFF;}
	.st2{fill:#E30427;}
	.st3{fill:#BE9F57;}
	.st4{enable-background:new    ;}
</style>
<g>
	<path class="st0" d="M221.6,0C145.3,0,83.2,62.2,83.2,138.5s62,138.5,138.3,138.5s138.4-62.1,138.4-138.5S297.9,0,221.6,0"/>
	<path class="st1" d="M136.2,203.6l14.9-4.4l1.2,1.3l-6.3,14.2l-1.3-1.6l1.9-4.2l-4.6-5.3l-4.4,1.4L136.2,203.6L136.2,203.6z
		 M143.6,203.2l3.8,4.3l2.8-6.2l-0.1-0.1L143.6,203.2L143.6,203.2z"/>
	<polygon class="st1" points="150.3,218.5 159.6,207.9 161.1,209.1 151.7,219.7 	"/>
	<polygon class="st1" points="175.8,219.8 168,231.6 166.6,230.6 165.1,216.6 165.1,216.6 159.1,225.7 157.5,224.6 165.3,212.8 
		166.7,213.8 168.2,227.8 168.3,227.8 174.3,218.7 	"/>
	<polygon class="st1" points="178.9,221.5 190.7,226.6 190,228.1 185,225.9 180.1,237.4 178.3,236.6 183.3,225.2 178.2,223 	"/>
	<polygon class="st1" points="197.3,235.1 202.7,236.3 202.3,237.9 196.9,236.7 	"/>
	<path class="st1" d="M225.5,234.9c-1.2-1.2-3.2-1.9-4.9-2c-3.4-0.1-5.9,2.5-5.9,5.7c-0.1,3,2.1,5.8,5.9,5.8c1.7,0,3.5-0.5,4.6-1.3
		l0.1-3.3l-4.6-0.1l0-1.7l6.2,0.1l-0.1,5.9c-1.7,1.3-4.2,2.1-6.4,2c-4.4-0.1-7.8-3.4-7.7-7.6c0-4.1,3.5-7.4,7.9-7.3
		c2.2,0.1,4.5,0.9,6.3,2.5L225.5,234.9L225.5,234.9z"/>
	<polygon class="st1" points="240.5,237.4 234.9,238.3 235.7,243.2 245.5,241.6 245.8,243.2 234.1,245.1 231.8,231.2 243,229.3 
		243.3,231 233.9,232.5 234.6,236.7 240.2,235.7 	"/>
	<path class="st1" d="M252,241.5l-4.8-13.3l7.3-2.6c1.7-0.6,3-0.6,4.2,0c0.9,0.4,1.6,1.2,2,2.2c0.7,1.8-0.1,3.6-1.8,4.8l5.3,4.5
		l-2,0.7l-5-4.3l-5.5,1.9l1.9,5.4L252,241.5L252,241.5z M249.6,229.1l1.7,4.7l6.1-2.1c1.5-0.5,2.1-2,1.7-3.3
		c-0.2-0.6-0.7-1.1-1.2-1.3c-0.9-0.4-1.7-0.3-2.7,0L249.6,229.1L249.6,229.1z"/>
	<polygon class="st1" points="281.8,227.3 275.8,218.4 275.7,218.5 275.8,228.5 275.4,228.7 266.6,224 266.5,224 271.8,233.4 
		270.3,234.4 263.2,222 264.9,221 274.1,225.9 274.1,225.9 274,215.5 275.6,214.6 283.4,226.4 	"/>
	<path class="st1" d="M287.9,222.9l-4.6-14.9l1.3-1.2l14.4,6.1l-1.5,1.4l-4.3-1.8l-5.2,4.7l1.5,4.4L287.9,222.9L287.9,222.9z
		 M287.4,215.7l4.2-3.8l-6.2-2.7l-0.1,0.1L287.4,215.7L287.4,215.7z"/>
	<polygon class="st1" points="302.5,208.6 291.8,199.5 293,198.1 303.7,207.2 	"/>
	<polygon class="st1" points="303.4,183.1 315.3,190.7 314.4,192.1 300.5,193.9 300.4,193.9 309.5,199.7 308.5,201.3 296.6,193.7 
		297.6,192.3 311.5,190.5 311.5,190.5 302.4,184.7 	"/>
	<path class="st1" d="M221.4,15c68.2,0,123.4,55.3,123.4,123.5s-55.2,123.6-123.4,123.6S98,206.8,98,138.6S153.2,15,221.4,15
		 M221.4,9.9c-34.3,0-66.6,13.4-90.8,37.7c-24.3,24.3-37.6,56.6-37.6,91s13.4,66.6,37.6,90.9c24.2,24.3,56.5,37.7,90.8,37.7
		s66.6-13.4,90.9-37.7c24.2-24.3,37.6-56.6,37.6-90.9s-13.4-66.7-37.6-91C287.9,23.3,255.7,9.9,221.4,9.9"/>
	<path class="st1" d="M256.1,62.8l12.2-29.4c-2-0.9-4-1.7-6.1-2.5l-12.2,29.4C252.1,61.1,254.2,61.9,256.1,62.8"/>
	<path class="st1" d="M221,55.1v-9.6h8l6.9,11c2.8,0.5,5.4,1.1,8.1,1.9l-8.3-13.3c4.8-1.3,8.7-5.5,8.7-10.5c0-6-5.7-10.9-11.7-10.9
		h-18.2v31.7C216.6,55.2,218.8,55.1,221,55.1 M221,29.3h11.8c2.9,0,5.3,2.3,5.3,5.2s-2.4,5.2-5.3,5.2H221
		C221,39.8,221,29.3,221,29.3z"/>
	<path class="st1" d="M163.5,77.9l-7.2-6.6l8.9-9.8c4.1-4.4,4.1-11.6-0.4-15.6c-4.4-4-11.6-3.5-15.7,1l-13.2,14.6l23,21
		C160.4,80.9,162,79.4,163.5,77.9 M144.4,60.5L153,51c1.9-2.2,5.3-2.3,7.4-0.3c2.1,2,2.3,5.3,0.4,7.4l-8.6,9.5L144.4,60.5
		L144.4,60.5z"/>
	<path class="st1" d="M284,51.2c4.8-1.1,13.5,7.6,15.2,13.5c1.4-1.1,4.5-3.3,4.5-3.3c-3.7-10.5-18.4-21.1-25.4-14.5
		c-4.1,3.9-1.8,10,1.8,13.8l3.5,3.7c3.6,3.8,6.7,7.6,3.9,9.9c-3.1,2.5-11.7-3.8-16.8-14.8l-4.6,3.5c1.1,2.9,3.6,7.1,6.9,10.6
		c3.8,4,8,6.6,11.6,7.3c2.9,0.6,5.8,0.1,7.7-1.6c4.8-4.4,3-10.9-4.5-18.8l-3.1-3.2C281.2,53.6,282.6,51.6,284,51.2"/>
	<path class="st1" d="M186.3,29c-2.3,0.7-4.5,1.5-6.7,2.4l-2.4,36.1c2.1-1.3,4.4-2.5,6.6-3.6l0.4-8.4c4.3-1.9,8.9-3.5,13.5-4.7
		l5.5,6.3c2.4-0.5,4.9-0.9,7.4-1.2L186.3,29L186.3,29z M184.4,49.6l0.6-13.6l9,10.2C190.6,47.2,187.5,48.3,184.4,49.6"/>
	<path class="st0" d="M221.5,161.6c-16.5,0-29.9,12.7-29.9,28.4c0,5.5,1.7,10.7,4.5,15.1c7.9,3.1,16.4,4.7,25.4,4.7
		s17.5-1.7,25.4-4.7c2.9-4.4,4.5-9.5,4.5-15.1C251.3,174.3,238,161.6,221.5,161.6"/>
	<path class="st2" d="M247.6,140.4h-52.2c-8.7,14.4-19.9,26.8-32.9,37.4c5.6,8.6,13.1,15.9,21.9,21.4c-0.3-1.9-0.5-3.8-0.5-5.7
		c0-19.5,16.9-35.3,37.8-35.3s37.7,15.8,37.7,35.3c0,2-0.2,3.9-0.5,5.7c8.7-5.4,16.2-12.7,21.9-21.3
		C267.5,167.3,256.3,154.8,247.6,140.4"/>
	<path class="st2" d="M246,137.7c-11-19.4-17.6-42.3-18.1-69.1c-2.1-0.2-4.3-0.3-6.4-0.3s-4.4,0.1-6.5,0.3
		c-0.5,26.8-7.1,49.7-18.1,69.1H246L246,137.7z"/>
	<path class="st1" d="M221.5,63.2c-41.8,0-75.8,34-75.8,75.8s34,75.9,75.8,75.9s75.8-34,75.8-75.9S263.3,63.2,221.5,63.2
		 M221.5,68.2c2.2,0,4.3,0.1,6.4,0.3c0.5,26.8,7,49.7,18.1,69.1h-49.1c11-19.4,17.6-42.3,18.1-69.1
		C217.1,68.4,219.3,68.2,221.5,68.2 M150.8,139c0-35.7,26.4-65.2,60.7-70.1c-3.1,45.5-22,78.5-53.2,101.8
		C153.5,161.2,150.8,150.4,150.8,139 M246.8,205.1c-7.9,3.1-16.4,4.7-25.4,4.7s-17.5-1.7-25.4-4.7c-2.9-4.4-4.5-9.5-4.5-15.1
		c0-15.7,13.4-28.4,29.9-28.4s29.9,12.7,29.9,28.4C251.3,195.5,249.7,200.7,246.8,205.1 M258.7,199.2c0.3-1.9,0.5-3.8,0.5-5.7
		c0-19.5-16.9-35.3-37.7-35.3s-37.8,15.8-37.8,35.3c0,2,0.2,3.9,0.5,5.7c-8.8-5.4-16.2-12.7-21.9-21.4c13.1-10.6,24.3-23,32.9-37.4
		h52.2c8.7,14.4,19.9,26.8,33,37.4C274.9,186.4,267.4,193.7,258.7,199.2 M231.4,68.9c34.3,4.9,60.7,34.4,60.7,70.1
		c0,11.4-2.7,22.2-7.5,31.8C253.5,147.4,234.5,114.4,231.4,68.9"/>
	<path class="st3" d="M224,198.4c-0.8-0.5-1.4-1.3-1.7-2.3c-0.1-0.4-0.4-0.6-0.8-0.6c-0.4,0-0.7,0.3-0.9,0.6c-0.2,1-0.9,1.8-1.7,2.3
		c-0.2,0.1-0.2,0.2-0.1,0.3c0.5,1,1.4,2.2,2.4,3.1c0.1,0.1,0.2,0.1,0.2,0.1c0,0,0.1,0,0.2-0.1c1.1-0.8,1.9-2.1,2.4-3.1
		C224.1,198.6,224.1,198.5,224,198.4"/>
	<path class="st3" d="M226.4,182.6c0-2.9-3.8-11.9-4.9-11.9c-0.1,0-0.2,0.1-0.3,0.1c-1.4,1.1-4.6,9.1-4.6,11.8
		c0,2.2,4.4,7.9,4.4,10.9v0c0,0.3,0.2,0.6,0.6,0.6c0.3,0,0.6-0.2,0.6-0.6v0C222.1,190.4,226.4,184.7,226.4,182.6"/>
	<path class="st3" d="M219,193.2c-2.1-5.4-5.6-8.3-9.2-8.3c-2.8,0-5,2.2-5,5s2.2,5,5,5c0.8,0,1.7-0.4,2.1-0.9
		c0.7-0.8,0.6-1.6,0.5-1.8c-0.1-0.2-0.2-0.1-0.3-0.1c-0.1,0-0.2,0-0.3,0c-0.9,0-1.7-0.8-1.7-1.7s0.8-1.7,1.7-1.7
		c1.7,0,4.5,1.6,6.1,5c0,0,0,0,0,0.1c0.1,0.2,0.3,0.3,0.5,0.3c0.4,0,0.6-0.3,0.6-0.6C219.1,193.4,219.1,193.3,219,193.2"/>
	<path class="st3" d="M233,184.9c-3.7,0-7.2,2.9-9.3,8.3c0,0.1,0,0.2,0,0.2c0,0.4,0.2,0.6,0.6,0.6c0.2,0,0.5-0.1,0.5-0.3
		c0.1-0.1,0.1-0.1,0-0.1h0c1.5-3.4,4.4-5,6.1-5c0.9,0,1.7,0.7,1.7,1.7s-0.8,1.7-1.7,1.7c-0.1,0-0.2,0-0.3,0c0,0-0.3-0.1-0.3,0.1
		c-0.1,0.2-0.2,1,0.5,1.8c0.4,0.5,1.3,0.9,2.1,0.9c2.8,0,5-2.2,5-5S235.8,184.9,233,184.9"/>
	<path class="st1" d="M144.3,191.7c-0.6-4.4-4.3-9.1-7.6-9.4c-0.7-0.1-1.4,0-2,0.4c-0.7,0.4-1.2,1-1.4,1.8c-0.3,1.2,0,2.8,0.8,4.3
		l1.2,2.1c0.9,1.7,1.8,3.4,1.5,4.6c-0.1,0.5-0.5,0.9-1,1.1c-0.2,0.1-0.6,0.2-0.9,0.1c-2-0.2-4.9-4.3-5.9-9.6l0-0.1l-1.6,1.2l0,0v0
		c0.2,1.3,0.8,3.5,2,5.6c1.3,2.3,2.9,3.9,4.4,4.6c0.5,0.2,1,0.4,1.5,0.4c0.7,0.1,1.4,0,1.9-0.3c0.9-0.5,1.4-1.2,1.7-2
		c0.5-1.6-0.1-3.9-1.8-6.7l-1.1-1.9c-0.9-1.5-0.7-2.4-0.4-2.9c0.2-0.4,0.7-0.7,1.2-0.7c0.1,0,0.1,0,0.2,0c2.4,0.3,5.3,4.7,5.8,7.8
		v0.1l0.1,0C143.3,192.2,143.9,191.9,144.3,191.7L144.3,191.7L144.3,191.7L144.3,191.7z"/>
</g>
<g class="st4">
	<path class="st1" d="M52,342.8c-4.1-4.1-6.3-10-6.3-17.3V325c0-7.4,2.3-13.2,6.3-17.3c3.7-3.7,8.7-5.8,14.8-5.8
		c6.2,0,11.2,2.2,14.5,5.5c2.8,2.8,4.8,6.9,5.3,11.1v0.6h-9.2v-1.9c0-4.5-2.8-7.2-7.5-7.2h-6.6c-4.8,0-7.8,3-7.8,7.8v15.1
		c0,4.8,3,7.8,7.8,7.8h6.6c4.6,0,7.5-2.7,7.5-7.2v-2h9.2v0.6c-0.5,4.2-2.3,8.2-5.2,11c-3.4,3.4-8.3,5.6-14.5,5.6
		C60.6,348.6,55.7,346.5,52,342.8z"/>
	<path class="st1" d="M98.2,342.8c-4-4-6.4-9.9-6.4-17.3V325c0-7.4,2.4-13.3,6.4-17.3c3.8-3.8,8.9-5.8,15.1-5.8s11.2,1.9,15.1,5.8
		c4,4,6.3,10,6.3,17.3v0.6c0,7.4-2.3,13.2-6.3,17.3c-3.8,3.8-8.9,5.8-15.1,5.8S102.1,346.6,98.2,342.8z M109.5,340.5h7.5
		c4.8,0,7.8-3,7.8-7.8v-15.1c0-4.8-3-7.8-7.8-7.8h-7.5c-4.8,0-7.8,3.1-7.8,7.8v15.1C101.7,337.5,104.8,340.5,109.5,340.5z"/>
	<path class="st1" d="M141.1,302.6h8l20,30.3h0.1l-0.5-21v-9.3h8.5v45.3h-8l-20-30.3h-0.1l0.5,21v9.3h-8.5V302.6z"/>
	<path class="st1" d="M189.9,342.8c-4.1-4.1-6.3-10-6.3-17.3V325c0-7.4,2.3-13.2,6.3-17.3c3.7-3.7,8.7-5.8,14.8-5.8
		c6.2,0,11.2,2.2,14.5,5.5c2.8,2.8,4.8,6.9,5.3,11.1v0.6h-9.2v-1.9c0-4.5-2.8-7.2-7.5-7.2h-6.6c-4.8,0-7.8,3-7.8,7.8v15.1
		c0,4.8,3,7.8,7.8,7.8h6.6c4.6,0,7.5-2.7,7.5-7.2v-2h9.2v0.6c-0.5,4.2-2.3,8.2-5.2,11c-3.4,3.4-8.3,5.6-14.5,5.6
		C198.6,348.6,193.6,346.5,189.9,342.8z"/>
	<path class="st1" d="M236.2,342.8c-4-4-6.4-9.9-6.4-17.3V325c0-7.4,2.4-13.3,6.4-17.3c3.8-3.8,8.9-5.8,15.1-5.8
		c6.1,0,11.2,1.9,15.1,5.8c4,4,6.3,10,6.3,17.3v0.6c0,7.4-2.3,13.2-6.3,17.3c-3.8,3.8-8.9,5.8-15.1,5.8
		C245.1,348.6,240,346.6,236.2,342.8z M247.5,340.5h7.5c4.8,0,7.8-3,7.8-7.8v-15.1c0-4.8-3-7.8-7.8-7.8h-7.5c-4.8,0-7.8,3.1-7.8,7.8
		v15.1C239.7,337.5,242.7,340.5,247.5,340.5z"/>
	<path class="st1" d="M279,302.6h19.5c4.6,0,8.7,1.6,11.5,4.4c2.7,2.6,4.2,6.2,4.2,9.6v0.6c0,3.7-1.8,7.4-4.4,10
		c-1.5,1.5-3.2,2.5-4.8,3.3l-1.4,0.3l3.2,3.8l8.7,12.7v0.7h-10.3l-9.9-15.7h-7v15.7H279V302.6z M300.9,324.5c2,0,3.4-1.4,3.4-3.4
		V314c0-2-1.4-3.4-3.4-3.4h-12.6v13.9H300.9z"/>
	<path class="st1" d="M320.9,302.6h18.5c6.8,0,11.9,1.9,15.6,5.4c4.1,4.1,6.1,10.3,6.1,16.9v0.6c0,6.6-2,12.8-6.1,16.8
		c-3.7,3.7-8.8,5.5-15.6,5.5h-18.5V302.6z M343.3,339.9c4.8,0,7.8-3,7.8-7.8v-13.8c0-4.8-3-7.8-7.8-7.8h-13.1v29.3H343.3z"/>
	<path class="st1" d="M367.5,302.6h30.1v8h-20.8v10.5h19.4v7.7h-19.4v11.1h20.8v8h-30.1V302.6z"/>
</g>
</svg>
