<?xml version="1.0" encoding="UTF-8"?>
<svg id="Layer_2" data-name="Layer 2" xmlns="http://www.w3.org/2000/svg" viewBox="0 0 803.29 277.08">
  <defs>
    <style>
      .cls-1 {
        fill: #00406f;
      }

      .cls-1, .cls-2, .cls-3, .cls-4 {
        stroke-width: 0px;
      }

      .cls-2 {
        fill: #be9f57;
      }

      .cls-3 {
        fill: #e30427;
      }

      .cls-4 {
        fill: #fff;
      }
    </style>
  </defs>
  <g id="Layer_1-2" data-name="Layer 1">
    <g>
      <g>
        <path class="cls-1" d="m138.33,0C62.03,0,0,62.15,0,138.54s62.03,138.54,138.33,138.54,138.36-62.15,138.36-138.54S214.62,0,138.33,0"/>
        <path class="cls-4" d="m53.02,203.64l14.9-4.37,1.2,1.32-6.3,14.24-1.33-1.55,1.9-4.23-4.65-5.3-4.43,1.36-1.3-1.47Zm7.3-.4l3.75,4.3,2.79-6.16-.08-.11-6.46,1.97Z"/>
        <polygon class="cls-4" points="67.09 218.51 76.38 207.88 77.82 209.11 68.51 219.74 67.09 218.51"/>
        <polygon class="cls-4" points="92.56 219.78 84.78 231.57 83.36 230.63 81.85 216.64 81.83 216.63 75.86 225.68 74.3 224.64 82.06 212.84 83.5 213.77 85 227.76 85.02 227.79 91.03 218.73 92.56 219.78"/>
        <polygon class="cls-4" points="95.67 221.48 107.43 226.58 106.79 228.11 101.77 225.92 96.83 237.37 95.11 236.61 100.05 225.18 95 223 95.67 221.48"/>
        <polygon class="cls-4" points="114.05 235.09 119.47 236.28 119.11 237.95 113.68 236.74 114.05 235.09"/>
        <path class="cls-4" d="m142.28,234.88c-1.21-1.19-3.19-1.94-4.95-1.96-3.38-.06-5.85,2.5-5.92,5.69-.05,3.01,2.14,5.78,5.87,5.84,1.69.03,3.48-.47,4.6-1.31l.06-3.34-4.57-.08.04-1.67,6.25.11-.09,5.94c-1.73,1.27-4.18,2.07-6.41,2.02-4.43-.06-7.77-3.45-7.69-7.55.04-4.11,3.53-7.37,7.85-7.3,2.21.05,4.48.91,6.28,2.49l-1.33,1.15Z"/>
        <polygon class="cls-4" points="157.29 237.39 151.65 238.33 152.47 243.2 162.29 241.56 162.54 243.21 150.89 245.14 148.59 231.21 159.76 229.34 160.03 231 150.69 232.54 151.41 236.68 157.01 235.74 157.29 237.39"/>
        <path class="cls-4" d="m168.72,241.52l-4.75-13.3,7.33-2.63c1.72-.61,3.05-.56,4.2.02.91.44,1.6,1.21,1.95,2.23.66,1.81-.08,3.63-1.76,4.82l5.28,4.48-2.01.71-4.97-4.32-5.46,1.92,1.95,5.43-1.78.64Zm-2.41-12.38l1.68,4.74,6.05-2.15c1.45-.51,2.12-1.98,1.67-3.29-.22-.58-.66-1.06-1.19-1.31-.87-.42-1.73-.3-2.66.03l-5.55,1.98Z"/>
        <polygon class="cls-4" points="198.54 227.34 192.57 218.44 192.45 218.51 192.52 228.5 192.21 228.7 183.4 223.99 183.3 224.03 188.58 233.43 187.04 234.36 179.99 222.04 181.71 221.01 190.82 225.91 190.82 225.87 190.77 215.53 192.4 214.55 200.16 226.37 198.54 227.34"/>
        <path class="cls-4" d="m204.69,222.94l-4.63-14.87,1.3-1.2,14.36,6.08-1.53,1.37-4.27-1.84-5.22,4.74,1.45,4.41-1.45,1.31Zm-.51-7.29l4.22-3.84-6.19-2.7-.11.08,2.07,6.46Z"/>
        <polygon class="cls-4" points="219.29 208.62 208.55 199.47 209.75 198.05 220.51 207.19 219.29 208.62"/>
        <polygon class="cls-4" points="220.17 183.1 232.06 190.68 231.16 192.12 217.22 193.87 217.2 193.89 226.31 199.71 225.3 201.3 213.42 193.7 214.33 192.27 228.29 190.53 228.29 190.51 219.16 184.68 220.17 183.1"/>
        <path class="cls-4" d="m138.12,15.04c68.19,0,123.41,55.31,123.41,123.55s-55.22,123.55-123.41,123.55S14.76,206.81,14.76,138.58,70.02,15.04,138.12,15.04m0-5.1c-34.29,0-66.55,13.39-90.79,37.69-24.28,24.29-37.64,56.59-37.64,90.96s13.36,66.65,37.64,90.95c24.25,24.3,56.51,37.68,90.79,37.68s66.58-13.38,90.86-37.68c24.25-24.3,37.63-56.6,37.63-90.95s-13.38-66.67-37.63-90.96c-24.28-24.3-56.52-37.69-90.86-37.69"/>
        <path class="cls-4" d="m172.91,62.85l12.23-29.4c-2.02-.91-4.04-1.74-6.11-2.52l-12.21,29.37c2.08.76,4.11,1.63,6.1,2.55"/>
        <path class="cls-4" d="m137.74,55.08v-9.64h8.04l6.93,11.01c2.76.5,5.45,1.12,8.12,1.88l-8.31-13.28c4.77-1.27,8.7-5.49,8.7-10.47,0-6.02-5.68-10.88-11.68-10.88h-18.23v31.65c2.09-.16,4.24-.25,6.42-.25m0-25.76h11.8c2.9,0,5.26,2.33,5.26,5.25s-2.36,5.25-5.26,5.25h-11.8v-10.5Z"/>
        <path class="cls-4" d="m80.27,77.93l-7.2-6.58,8.89-9.83c4.06-4.43,4.06-11.56-.37-15.6-4.42-4.05-11.64-3.5-15.68.95l-13.23,14.59,23.04,21.04c1.47-1.6,3-3.11,4.54-4.57m-19.09-17.45l8.64-9.51c1.95-2.15,5.27-2.29,7.39-.35,2.15,1.95,2.32,5.3.36,7.43l-8.64,9.5-7.74-7.07Z"/>
        <path class="cls-4" d="m200.73,51.23c4.75-1.11,13.5,7.6,15.16,13.49,1.41-1.06,4.49-3.33,4.49-3.33-3.7-10.53-18.41-21.07-25.4-14.47-4.15,3.91-1.78,9.96,1.81,13.76l3.51,3.71c3.6,3.78,6.74,7.55,3.86,9.93-3.07,2.54-11.68-3.83-16.82-14.77l-4.62,3.49c1.09,2.88,3.6,7.05,6.91,10.58,3.8,4.01,7.95,6.59,11.63,7.32,2.92.58,5.8.14,7.71-1.64,4.77-4.43,3.05-10.87-4.46-18.77l-3.07-3.25c-3.46-3.66-2.06-5.73-.71-6.04"/>
        <path class="cls-4" d="m103.07,28.96c-2.27.73-4.5,1.52-6.68,2.38l-2.41,36.08c2.15-1.31,4.36-2.53,6.59-3.64l.36-8.42c4.33-1.91,8.87-3.5,13.52-4.74l5.53,6.35c2.45-.52,4.9-.92,7.42-1.24l-24.34-26.77Zm-1.92,20.62l.55-13.6,8.97,10.25c-3.27.95-6.43,2.08-9.52,3.35"/>
        <path class="cls-1" d="m138.25,161.57c-16.51,0-29.91,12.73-29.91,28.43,0,5.54,1.66,10.68,4.53,15.05,7.89,3.05,16.42,4.72,25.38,4.72s17.46-1.67,25.36-4.72c2.87-4.37,4.51-9.53,4.51-15.05,0-15.7-13.39-28.43-29.87-28.43"/>
        <path class="cls-3" d="m164.34,140.43h-52.25c-8.67,14.39-19.85,26.8-32.93,37.38,5.63,8.63,13.12,15.93,21.87,21.36-.32-1.86-.53-3.77-.53-5.73,0-19.49,16.91-35.3,37.75-35.3s37.69,15.8,37.69,35.3c0,1.96-.16,3.87-.49,5.73,8.74-5.43,16.21-12.73,21.88-21.32-13.11-10.59-24.3-23.02-32.99-37.41"/>
        <path class="cls-3" d="m162.73,137.68c-11.02-19.42-17.59-42.34-18.06-69.13-2.11-.19-4.27-.3-6.42-.3s-4.38.11-6.47.3c-.49,26.8-7.05,49.71-18.09,69.13h49.05Z"/>
        <path class="cls-4" d="m138.25,63.16c-41.77,0-75.76,34.01-75.76,75.85s33.99,75.87,75.76,75.87,75.75-34.03,75.75-75.87-33.95-75.85-75.75-75.85m0,5.08c2.16,0,4.31.11,6.42.3.46,26.8,7.03,49.71,18.06,69.13h-49.05c11.04-19.42,17.6-42.34,18.09-69.13,2.09-.19,4.27-.3,6.47-.3m-70.68,70.77c0-35.69,26.41-65.2,60.71-70.06-3.12,45.48-22.01,78.46-53.16,101.84-4.84-9.57-7.56-20.35-7.56-31.79m96.05,66.05c-7.9,3.05-16.44,4.72-25.36,4.72s-17.5-1.67-25.38-4.72c-2.86-4.37-4.53-9.52-4.53-15.05,0-15.7,13.4-28.43,29.91-28.43s29.87,12.73,29.87,28.43c0,5.52-1.64,10.68-4.51,15.05m11.84-5.9c.34-1.86.5-3.77.5-5.73,0-19.49-16.88-35.3-37.7-35.3s-37.75,15.8-37.75,35.3c0,1.96.2,3.88.54,5.73-8.76-5.43-16.25-12.73-21.88-21.35,13.09-10.58,24.26-23,32.93-37.38h52.25c8.7,14.38,19.88,26.82,32.99,37.41-5.67,8.6-13.14,15.89-21.88,21.32m-27.23-130.21c34.3,4.86,60.69,34.36,60.69,70.06,0,11.44-2.72,22.22-7.55,31.79-31.11-23.4-50.05-56.37-53.14-101.84"/>
        <path class="cls-2" d="m140.75,198.43c-.82-.51-1.45-1.31-1.67-2.28-.11-.36-.44-.62-.83-.62-.42,0-.74.26-.85.62-.22.97-.87,1.77-1.68,2.28-.16.09-.16.18-.11.27.51,1.02,1.36,2.25,2.38,3.09.13.12.22.12.25.12,0,0,.05,0,.22-.12,1.05-.84,1.88-2.07,2.41-3.09.02-.09.02-.18-.13-.27"/>
        <path class="cls-2" d="m143.16,182.55c0-2.89-3.79-11.9-4.91-11.9-.1,0-.18.05-.28.13-1.4,1.11-4.65,9.09-4.65,11.77,0,2.17,4.36,7.85,4.36,10.92v.03c0,.31.22.56.56.56.3,0,.56-.25.56-.56v-.03c.02-3.09,4.35-8.76,4.35-10.92"/>
        <path class="cls-2" d="m135.8,193.21c-2.05-5.39-5.56-8.32-9.23-8.32-2.76,0-5,2.25-5,5.01s2.24,5.01,5,5.01c.83,0,1.68-.4,2.12-.87.71-.83.56-1.64.49-1.8-.05-.19-.24-.13-.34-.13-.06,0-.21.02-.28.02-.94,0-1.69-.76-1.69-1.67s.75-1.69,1.69-1.69c1.66,0,4.53,1.58,6.11,4.97,0,.02.01.02.01.05.11.18.31.32.53.32.36,0,.64-.28.62-.64,0-.1,0-.17-.03-.25"/>
        <path class="cls-2" d="m149.76,184.89c-3.67,0-7.2,2.94-9.26,8.32-.01.08-.02.16-.02.25,0,.37.25.64.6.64.23,0,.46-.13.54-.32t.02-.05h.04c1.54-3.39,4.44-4.97,6.1-4.97.92,0,1.67.74,1.67,1.69s-.75,1.67-1.67,1.67c-.08,0-.24-.02-.31-.02,0,0-.27-.05-.34.14-.08.16-.2.97.52,1.79.42.47,1.27.87,2.11.87,2.76,0,4.97-2.24,4.97-5.01s-2.21-5.01-4.97-5.01"/>
        <path class="cls-4" d="m61.09,191.7c-.57-4.38-4.34-9.05-7.59-9.45-.72-.1-1.39.01-2.02.36-.7.4-1.18,1-1.42,1.77-.29,1.21-.01,2.84.84,4.34l1.23,2.15c.94,1.69,1.84,3.42,1.46,4.65-.14.49-.49.88-1.01,1.12-.25.13-.58.18-.92.13-1.97-.24-4.94-4.26-5.94-9.6l-.04-.1-1.64,1.19-.03.04v.02c.18,1.33.78,3.49,2.01,5.64,1.27,2.26,2.86,3.91,4.41,4.65.52.24,1.04.39,1.53.44.73.1,1.4,0,1.93-.3.88-.47,1.41-1.17,1.66-2.03.47-1.6-.12-3.88-1.77-6.74l-1.07-1.91c-.88-1.53-.7-2.43-.39-2.92.23-.42.69-.67,1.16-.67.08,0,.14,0,.24,0,2.36.31,5.26,4.7,5.75,7.84v.09l.06-.04c.54-.21,1.16-.47,1.53-.62l.07-.02-.03-.06Z"/>
      </g>
      <g>
        <path class="cls-4" d="m311.12,157.67c-4.59-4.59-7.24-11.18-7.24-18.81v-.65c0-7.69,2.65-14.22,7.24-18.81,4.91-4.91,12.41-7.63,23.2-7.63s18.42,2.84,23.14,7.56c3.62,3.62,5.75,8.34,6.33,12.86v.65h-13.31v-1.81c0-5.11-3.17-8.27-8.34-8.27h-15.84c-5.3,0-8.66,3.36-8.66,8.66v14.22c0,5.3,3.36,8.66,8.66,8.66h15.84c5.17,0,8.34-3.17,8.34-8.27v-1.88h13.31v.65c-.58,4.59-2.65,9.24-6.33,12.86-4.72,4.78-12.22,7.63-23.14,7.63s-18.29-2.71-23.2-7.63Z"/>
        <path class="cls-4" d="m377.37,157.67c-4.59-4.59-7.3-11.31-7.3-18.81v-.65c0-7.56,2.71-14.22,7.3-18.81,4.91-4.98,12.54-7.63,23.46-7.63s18.62,2.65,23.53,7.63c4.59,4.59,7.24,11.25,7.24,18.81v.65c0,7.5-2.65,14.22-7.24,18.81-4.91,4.91-12.54,7.63-23.53,7.63s-18.55-2.71-23.46-7.63Zm15.06-3.36h16.87c5.24,0,8.53-3.36,8.53-8.6v-14.35c0-5.24-3.3-8.6-8.53-8.6h-16.87c-5.24,0-8.6,3.36-8.6,8.6v14.35c0,5.24,3.36,8.6,8.6,8.6Z"/>
        <path class="cls-4" d="m439.15,112.69h13.25l27.6,35.42h.13l-.45-22.3v-13.12h11.5v51.71h-13.25l-27.6-35.42h-.13l.45,22.3v13.12h-11.51v-51.71Z"/>
        <path class="cls-4" d="m505.92,157.67c-4.59-4.59-7.24-11.18-7.24-18.81v-.65c0-7.69,2.65-14.22,7.24-18.81,4.91-4.91,12.41-7.63,23.2-7.63s18.42,2.84,23.14,7.56c3.62,3.62,5.75,8.34,6.33,12.86v.65h-13.31v-1.81c0-5.11-3.17-8.27-8.34-8.27h-15.84c-5.3,0-8.66,3.36-8.66,8.66v14.22c0,5.3,3.36,8.66,8.66,8.66h15.84c5.17,0,8.34-3.17,8.34-8.27v-1.88h13.31v.65c-.58,4.59-2.65,9.24-6.33,12.86-4.72,4.78-12.22,7.63-23.14,7.63s-18.29-2.71-23.2-7.63Z"/>
        <path class="cls-4" d="m572.16,157.67c-4.59-4.59-7.3-11.31-7.3-18.81v-.65c0-7.56,2.71-14.22,7.3-18.81,4.91-4.98,12.54-7.63,23.46-7.63s18.62,2.65,23.53,7.63c4.59,4.59,7.24,11.25,7.24,18.81v.65c0,7.5-2.65,14.22-7.24,18.81-4.91,4.91-12.54,7.63-23.53,7.63s-18.55-2.71-23.46-7.63Zm15.06-3.36h16.87c5.24,0,8.53-3.36,8.53-8.6v-14.35c0-5.24-3.3-8.6-8.53-8.6h-16.87c-5.24,0-8.6,3.36-8.6,8.6v14.35c0,5.24,3.36,8.6,8.6,8.6Z"/>
        <path class="cls-4" d="m633.95,112.69h32.19c5.88,0,11.18,2.13,14.61,5.62,3.36,3.36,5.11,7.63,5.11,11.89v.65c0,4.39-1.81,8.53-5.04,11.76-1.81,1.81-3.88,3.1-6.27,4.01l-2.65.65,3.23,3.17,11.5,13.12v.84h-14.93l-12.6-15.96h-12.15v15.96h-12.99v-51.71Zm34.45,25.98c2.2,0,3.68-1.49,3.68-3.68v-7.69c0-2.2-1.49-3.68-3.68-3.68h-21.46v15.06h21.46Z"/>
        <path class="cls-4" d="m693.47,112.69h31.03c8.4,0,15.19,2.52,19.84,7.17,4.72,4.65,7.11,11.25,7.11,18.36v.65c0,7.11-2.39,13.64-7.04,18.29s-11.5,7.24-19.91,7.24h-31.03v-51.71Zm35.94,40.79c5.04,0,8.27-3.23,8.27-8.27v-13.38c0-4.98-3.23-8.21-8.27-8.21h-22.88v29.86h22.88Z"/>
        <path class="cls-4" d="m758.94,112.69h44.34v10.41h-31.28v10.67h29.15v9.44h-29.15v11.05h31.28v10.15h-44.34v-51.71Z"/>
      </g>
    </g>
  </g>
</svg>