<svg width="350" height="138" viewBox="0 0 350 138" fill="none" xmlns="http://www.w3.org/2000/svg">
<path d="M313.507 52.3018L308.433 53.9524C308.286 53.9999 308.158 54.092 308.067 54.2158L297.418 68.7765C297.302 68.9334 297.129 69.0383 296.937 69.0684C296.744 69.0984 296.548 69.0513 296.39 68.9371L288.214 63.0601C288.055 62.9466 287.947 62.7747 287.915 62.5821C287.882 62.3895 287.927 62.1919 288.04 62.0325L298.632 47.3433C298.723 47.2182 298.772 47.0676 298.773 46.9129L298.76 41.6462C298.759 41.4915 298.71 41.3409 298.619 41.2158L295.459 36.8739C295.368 36.7477 295.24 36.6534 295.092 36.6042L277.975 30.9905C277.79 30.9289 277.637 30.7963 277.549 30.6218C277.461 30.4472 277.446 30.2449 277.507 30.0592L280.557 20.4698C280.587 20.3768 280.634 20.2906 280.697 20.2159C280.759 20.1413 280.836 20.0798 280.923 20.0351C281.009 19.9903 281.104 19.9631 281.201 19.955C281.298 19.947 281.396 19.9582 281.489 19.9881L298.689 25.5054C298.838 25.5514 298.998 25.5492 299.145 25.499L304.213 23.8419C304.36 23.7927 304.489 23.6983 304.579 23.5721L307.694 19.2816C307.785 19.1565 307.835 19.006 307.836 18.8513L307.906 0.80932C307.906 0.61453 307.983 0.42762 308.12 0.289282C308.257 0.150945 308.444 0.0723741 308.638 0.0706803L318.735 2.79247e-05C318.833 -0.000820264 318.929 0.0176616 319.02 0.0544015C319.11 0.0911414 319.192 0.145419 319.262 0.214092C319.331 0.282765 319.386 0.364474 319.423 0.45451C319.461 0.544546 319.48 0.641126 319.48 0.738668L319.519 18.832C319.52 18.9867 319.569 19.1372 319.66 19.2623L322.794 23.54C322.886 23.6638 323.014 23.7559 323.161 23.8033L328.228 25.454C328.374 25.5028 328.531 25.5051 328.678 25.4604L345.878 19.956C346.063 19.897 346.264 19.9131 346.437 20.0008C346.61 20.0886 346.742 20.2409 346.803 20.4249L349.963 29.9822C350.024 30.1678 350.009 30.3701 349.921 30.5447C349.833 30.7192 349.68 30.8518 349.495 30.9135L332.32 36.5528C332.172 36.602 332.044 36.6964 331.954 36.8225L328.806 41.1644C328.715 41.2895 328.666 41.4401 328.665 41.5948V46.868C328.666 47.0227 328.715 47.1732 328.806 47.2983L339.385 61.9554C339.499 62.1132 339.546 62.3098 339.516 62.5023C339.486 62.6948 339.381 62.8675 339.224 62.9831L331.086 68.9499C331.008 69.0075 330.919 69.0489 330.825 69.072C330.73 69.0951 330.632 69.0993 330.536 69.0844C330.44 69.0694 330.348 69.0357 330.265 68.9851C330.182 68.9344 330.11 68.8679 330.052 68.7894L319.397 54.2094C319.305 54.0856 319.177 53.9935 319.031 53.946L313.957 52.3018C313.81 52.255 313.653 52.255 313.507 52.3018Z" fill="white"/>
<path d="M96.2411 2.56909H78.0258C77.5008 2.56909 77.0752 2.99468 77.0752 3.51968V21.7222C77.0752 22.2472 77.5008 22.6728 78.0258 22.6728H96.2411C96.7661 22.6728 97.1917 22.2472 97.1917 21.7222V3.51968C97.1917 2.99468 96.7661 2.56909 96.2411 2.56909Z" fill="white"/>
<path d="M201.031 2.56909H182.584C182.134 2.56909 181.769 2.9343 181.769 3.3848V21.8442C181.769 22.2947 182.134 22.6599 182.584 22.6599H201.031C201.481 22.6599 201.847 22.2947 201.847 21.8442V3.3848C201.847 2.9343 201.481 2.56909 201.031 2.56909Z" fill="white"/>
<path d="M13.6551 99.2852C13.6023 99.2852 13.5516 99.3068 13.5143 99.3454C13.477 99.3839 13.456 99.4362 13.456 99.4907V136.763C13.456 136.848 13.4222 136.93 13.3619 136.99C13.3017 137.05 13.22 137.084 13.1348 137.084L0.481718 137.078C0.353958 137.078 0.231429 137.027 0.141089 136.936C0.0507495 136.846 0 136.724 0 136.596V36.4178C0 36.1138 0.154151 35.9618 0.46245 35.9618L13.0578 35.9682C13.1617 35.9682 13.2613 36.0095 13.3348 36.0829C13.4083 36.1564 13.4496 36.2561 13.4496 36.36L13.456 44.8382C13.456 44.9558 13.5027 45.0685 13.5858 45.1516C13.6689 45.2347 13.7816 45.2814 13.8992 45.2814H18.909C19.0268 45.2814 19.1432 45.258 19.2512 45.2128C19.3593 45.1676 19.457 45.1014 19.5385 45.0181C23.1803 41.2607 28.4535 34.7286 33.9065 34.7093C37.1008 34.6965 40.2994 34.6879 43.5023 34.6836C46.6046 34.6772 49.405 36.6619 51.6145 38.563C58.7739 44.6905 64.501 52.0704 68.7957 60.7028C69.9904 63.105 70.7997 65.7833 70.8446 68.5131C70.9046 71.9258 70.8704 74.8161 70.7419 77.184C70.6263 79.2864 69.8384 81.7656 68.3783 84.6217C64.1434 92.9072 58.4142 100.122 51.1906 106.267C48.0305 108.952 45.0117 110.14 40.946 109.992C38.9892 109.924 37.1394 109.917 35.3966 109.973C31.575 110.101 28.614 108.252 25.788 105.715C23.4928 103.659 21.4761 101.617 19.7376 99.5871C19.5663 99.3858 19.3479 99.2852 19.0825 99.2852H13.6551ZM56.6629 68.6222C56.483 64.4538 52.5651 60.4973 49.3664 57.8703C45.8917 55.0185 42.3141 53.0403 37.741 53.1238C34.112 53.188 30.1363 52.687 26.8092 54.2927C22.2018 56.5279 18.4188 59.7929 15.4599 64.0877C13.411 67.0615 13.8606 70.4656 13.8092 73.7541C13.7514 77.5437 14.6956 79.9073 17.0207 82.5792C20.9066 87.056 26.2568 91.3786 32.3714 91.4107C35.0434 91.4236 37.5119 91.3914 39.7771 91.3144C45.8146 91.1088 56.3867 82.1617 56.6693 75.9315C56.7721 73.5978 56.7699 71.1614 56.6629 68.6222Z" fill="white"/>
<path d="M223.748 77.2803C223.209 77.4045 223.046 77.7235 223.26 78.2373C224.896 82.1938 226.981 85.2704 229.516 87.467C232.901 90.4023 236.125 91.6355 240.615 91.4878C242.842 91.4107 245.03 91.4107 247.179 91.4878C252.472 91.6805 257.404 89.4196 260.519 85.2126C260.609 85.0929 260.726 84.9958 260.859 84.9289C260.993 84.862 261.141 84.8272 261.29 84.8272H275.555C276.232 84.8272 276.457 85.1462 276.23 85.7842C275.528 87.7625 274.598 89.6144 273.442 91.3401C268.664 98.478 262.838 103.997 255.966 107.898C253.615 109.234 250.943 110.011 248.245 109.973C245.89 109.934 243.383 109.939 240.724 109.986C236.408 110.063 232.52 108.74 229.06 106.016C221.318 99.9275 215.255 92.5112 210.87 83.7674C209.612 81.2625 208.725 78.3529 208.744 75.4947C208.766 72.9855 208.779 70.4677 208.783 67.9414C208.789 66.1494 209.618 63.2591 210.402 61.6341C214.379 53.4042 219.873 46.2577 226.883 40.1945C229.818 37.6574 233.897 34.7478 237.898 34.7093C241.906 34.675 245.939 34.675 249.999 34.7093C253.088 34.7286 256.46 36.9059 258.715 38.8328C265.857 44.9517 271.34 52.1496 275.164 60.4266C277.433 65.3423 278.227 70.8403 277.547 76.9206C277.534 77.0221 277.485 77.1154 277.409 77.1829C277.334 77.2504 277.236 77.2873 277.136 77.2867C259.554 77.2953 241.957 77.291 224.346 77.2739C223.973 77.2739 223.774 77.276 223.748 77.2803ZM237.307 53.2073C231.276 53.1687 225.759 59.7458 223.434 64.7235C223.412 64.7698 223.402 64.8208 223.406 64.8718C223.409 64.9227 223.425 64.972 223.453 65.0151C223.48 65.0581 223.518 65.0933 223.563 65.1176C223.608 65.1419 223.659 65.1544 223.71 65.1539L263.031 65.1025C263.073 65.1024 263.115 65.0915 263.152 65.0709C263.189 65.0503 263.22 65.0207 263.243 64.9847C263.265 64.9488 263.278 64.9078 263.28 64.8655C263.283 64.8231 263.274 64.7809 263.256 64.7428C260.764 59.521 255.336 53.143 249.234 53.1944C245.286 53.2329 241.311 53.2372 237.307 53.2073Z" fill="white"/>
<path d="M93.8967 36.2893H80.7297C80.4885 36.2893 80.293 36.4848 80.293 36.7261V108.213C80.293 108.454 80.4885 108.65 80.7297 108.65H93.8967C94.1379 108.65 94.3335 108.454 94.3335 108.213V36.7261C94.3335 36.4848 94.1379 36.2893 93.8967 36.2893Z" fill="white"/>
<path d="M135.203 59.9771H141.825C141.943 59.9768 142.058 59.9459 142.161 59.8874C142.263 59.8289 142.349 59.7447 142.41 59.6431L156.315 36.3023C156.448 36.0796 156.643 35.9683 156.9 35.9683L172.36 35.9811C172.421 35.9815 172.481 35.9948 172.536 36.0201C172.592 36.0454 172.641 36.0822 172.68 36.128C172.72 36.1737 172.749 36.2273 172.766 36.2851C172.783 36.3428 172.786 36.4035 172.777 36.4628C172.751 36.6427 172.692 36.814 172.597 36.9767C166.457 47.3047 160.218 57.7355 153.881 68.2691C153.431 69.0141 153.23 69.7613 153.277 70.5107C153.367 71.8787 152.982 73.857 153.72 75.0003C160.948 86.159 168.033 97.1122 174.974 107.86C175.004 107.906 175.022 107.959 175.024 108.014C175.026 108.069 175.014 108.124 174.987 108.172C174.961 108.22 174.921 108.26 174.874 108.288C174.826 108.316 174.772 108.33 174.717 108.329L158.807 108.335C158.542 108.335 158.338 108.224 158.197 108.001L142.564 84.1144C142.497 84.0099 142.406 83.9239 142.298 83.8644C142.19 83.8049 142.069 83.7738 141.947 83.7739L135.569 83.7547C135.341 83.7549 135.117 83.8127 134.917 83.9227C134.717 84.0328 134.548 84.1915 134.426 84.3841L119.454 108.117C119.41 108.184 119.351 108.239 119.281 108.277C119.212 108.315 119.134 108.335 119.056 108.335L103.134 108.329C103.068 108.328 103.003 108.31 102.946 108.277C102.89 108.243 102.843 108.195 102.811 108.138C102.78 108.081 102.764 108.017 102.767 107.952C102.769 107.887 102.79 107.824 102.825 107.77C109.317 97.4762 116.123 86.7114 123.244 75.4756C124.239 73.9084 124.303 70.1638 123.334 68.603C117.073 58.4891 110.533 47.9577 103.712 37.0088C103.605 36.8418 103.534 36.6641 103.5 36.4757C103.488 36.4153 103.49 36.3532 103.506 36.2937C103.521 36.2343 103.55 36.179 103.589 36.1317C103.628 36.0845 103.677 36.0465 103.733 36.0205C103.789 35.9944 103.849 35.981 103.911 35.9811L119.615 35.9683C119.708 35.968 119.801 35.9921 119.883 36.0382C119.965 36.0843 120.034 36.1509 120.084 36.2316L134.387 59.5211C134.576 59.8251 134.848 59.9771 135.203 59.9771Z" fill="white"/>
<path d="M198.512 36.3213H185.461C185.184 36.3213 184.96 36.5456 184.96 36.8223V108.168C184.96 108.445 185.184 108.669 185.461 108.669H198.512C198.789 108.669 199.013 108.445 199.013 108.168V36.8223C199.013 36.5456 198.789 36.3213 198.512 36.3213Z" fill="white"/>
</svg>
